# xmcd
#
# Track frame offsets:
#	180
#	19731
#	37814
#	55985
#	73157
#	90342
#	111015
#	123391
#	146624
#	163153
#	180214
#	200008
#	222380
#
# Disc length: 3190 seconds
#
# Revision: 1
# Processed by: cddbd v1.5.1PL0 Copyright (c) Steve Scherf et al.
# Submitted via: audiograbber 1.82.02
#
DISCID=b40c740d
DTITLE=Wanda Lu Greene - Tellin' Lies
DYEAR=1900
DGENRE=Country
TTITLE0=Tellin' Lies
TTITLE1=Funny
TTITLE2=Down There
TTITLE3=Along Goodbye
TTITLE4=Darlington County
TTITLE5=Walking To The Moon
TTITLE6=Kind Of A Girl
TTITLE7=Insanity Rains
TTITLE8=Hardly Living
TTITLE9=Man In The Moon
TTITLE10=Blizzard of '93
TTITLE11=Until Tomorrow
TTITLE12=Same Dark Road
EXTD=Disc no longer in print
EXTT0=
EXTT1=
EXTT2=
EXTT3=
EXTT4=
EXTT5=
EXTT6=
EXTT7=
EXTT8=
EXTT9=
EXTT10=
EXTT11=
EXTT12=
PLAYORDER=
